<?xml version="1.0" standalone="yes"?>
<svg xmlns="http://www.w3.org/2000/svg" width="310" height="342">
<path style="fill:none; stroke:none;" d="M0 0L0 342L310 342L310 0L0 0z"/>
<path style="fill:#b1f5fc; stroke:none;" d="M153 10L154 11L153 10M151 11L152 12L151 11z"/>
<path style="fill:#51e8f7; stroke:none;" d="M152 11L153 12L152 11z"/>
<path style="fill:#2be3f5; stroke:none;" d="M153 12.0671C143.535 12.5955 130.183 24.0665 122 28.7191C97.3042 42.7598 72.6302 56.8446 48 71C40.5201 75.2988 20.1508 82.3944 16.6034 90.3287C13.6795 96.8685 16 108.878 16 116C16 136.521 17.3123 157.53 15.9105 178C14.6806 195.959 15 213.97 15 232C15 237.471 13.0134 247.864 16.0278 252.61C19.843 258.618 31.9455 262.809 38 266.397C56.5829 277.409 75.3742 288.072 94 299.011C108.974 307.805 123.914 316.681 139 325.281C143.641 327.927 150.5 334.162 156 334.164C164.388 334.166 176.725 323.302 184 319.306C209.884 305.089 235.38 290.109 261 275.421C268.6 271.064 288.867 263.982 292.397 255.79C294.902 249.975 292.546 241.265 293.285 235C296.175 210.514 294 184.663 294 160L294 112C294 106.933 295.742 97.8102 292.972 93.3789C289.187 87.3226 277.086 83.1079 271 79.5756C252.968 69.1104 234.977 58.5693 217 48.0108C202.033 39.2202 186.913 30.6811 172 21.7994C167.154 18.9131 158.804 11.7432 153 12.0671z"/>
<path style="fill:#76edf9; stroke:none;" d="M154 11L155 12L154 11M150 12L151 13L150 12z"/>
<path style="fill:#b1f5fc; stroke:none;" d="M156 12L157 13L156 12z"/>
<path style="fill:#76edf9; stroke:none;" d="M148 13L149 14L148 13z"/>
<path style="fill:#51e8f7; stroke:none;" d="M157 13L158 14L157 13z"/>
<path style="fill:#b1f5fc; stroke:none;" d="M158 13L159 14L158 13M146 14L147 15L146 14z"/>
<path style="fill:#51e8f7; stroke:none;" d="M147 14L148 15L147 14z"/>
<path style="fill:#76edf9; stroke:none;" d="M159 14L160 15L159 14z"/>
<path style="fill:#b1f5fc; stroke:none;" d="M144 15L145 16L144 15z"/>
<path style="fill:#51e8f7; stroke:none;" d="M145 15L146 16L145 15z"/>
<path style="fill:#76edf9; stroke:none;" d="M161 15L162 16L161 15M143 16L144 17L143 16z"/>
<path style="fill:#51e8f7; stroke:none;" d="M162 16L163 17L162 16z"/>
<path style="fill:#b1f5fc; stroke:none;" d="M163 16L164 17L163 16z"/>
<path style="fill:#76edf9; stroke:none;" d="M141 17L142 18L141 17z"/>
<path style="fill:#51e8f7; stroke:none;" d="M164 17L165 18L164 17z"/>
<path style="fill:#b1f5fc; stroke:none;" d="M165 17L166 18L165 17M139 18L140 19L139 18z"/>
<path style="fill:#76edf9; stroke:none;" d="M166 18L167 19L166 18z"/>
<path style="fill:#b1f5fc; stroke:none;" d="M137 19L138 20L137 19z"/>
<path style="fill:#51e8f7; stroke:none;" d="M138 19L139 20L138 19z"/>
<path style="fill:#b1f5fc; stroke:none;" d="M168 19L169 20L168 19z"/>
<path style="fill:#76edf9; stroke:none;" d="M136 20L137 21L136 20z"/>
<path style="fill:#51e8f7; stroke:none;" d="M169 20L170 21L169 20z"/>
<path style="fill:#b1f5fc; stroke:none;" d="M170 20L171 21L170 20z"/>
<path style="fill:#76edf9; stroke:none;" d="M134 21L135 22L134 21M171 21L172 22L171 21z"/>
<path style="fill:#b1f5fc; stroke:none;" d="M132 22L133 23L132 22z"/>
<path style="fill:#76edf9; stroke:none;" d="M173 22L174 23L173 22z"/>
<path style="fill:#b1f5fc; stroke:none;" d="M130 23L131 24L130 23z"/>
<path style="fill:#51e8f7; stroke:none;" d="M131 23L132 24L131 23M174 23L175 24L174 23z"/>
<path style="fill:#b1f5fc; stroke:none;" d="M175 23L176 24L175 23z"/>
<path style="fill:#76edf9; stroke:none;" d="M129 24L130 25L129 24z"/>
<path style="fill:#51e8f7; stroke:none;" d="M176 24L177 25L176 24z"/>
<path style="fill:#b1f5fc; stroke:none;" d="M177 24L178 25L177 24z"/>
<path style="fill:#76edf9; stroke:none;" d="M127 25L128 26L127 25M178 25L179 26L178 25z"/>
<path style="fill:#b1f5fc; stroke:none;" d="M125 26L126 27L125 26M180 26L181 27L180 26M123 27L124 28L123 27z"/>
<path style="fill:#51e8f7; stroke:none;" d="M124 27L125 28L124 27M153 27L154 28L153 27M181 27L182 28L181 27z"/>
<path style="fill:#b1f5fc; stroke:none;" d="M182 27L183 28L182 27M121 28L122 29L121 28z"/>
<path style="fill:#76edf9; stroke:none;" d="M122 28L123 29L122 28M151 28L152 29L151 28z"/>
<path style="fill:#ffffff; stroke:none;" d="M152 29.0394C142.515 30.7477 131.338 40.2083 123 45C102.03 57.0519 80.9702 68.9481 60 81C53.1476 84.9382 34.9902 91.1572 31.6034 98.3897C29.2378 103.441 31.3649 111.488 30.7145 117C28.1305 138.9 30 161.942 30 184L30 227C30 231.745 28.3536 240.348 31.0278 244.471C34.1228 249.242 43.1438 252.512 48 255.281C61.7369 263.112 75.4144 271.11 89 279.201C104.914 288.678 121.086 297.723 137 307.201C141.978 310.165 151.001 317.914 157 317.127C166.296 315.907 177.909 306.06 186 301.421C207.316 289.201 228.661 277.03 250 264.85C257.062 260.819 275.158 254.502 278.397 246.815C281.247 240.048 279 228.3 279 221L279 162C279 147.634 279.999 133.304 280 119C280 114.313 281.482 106.475 278.972 102.329C275.893 97.2417 266.97 94.1602 262 91.2006C248.085 82.9137 234.07 74.7401 220 66.7191C203.576 57.356 187.396 47.5623 171 38.1497C166.164 35.3734 157.845 27.9866 152 29.0394z"/>
<path style="fill:#b1f5fc; stroke:none;" d="M154 28L155 29L154 28z"/>
<path style="fill:#76edf9; stroke:none;" d="M183 28L184 29L183 28M120 29L121 30L120 29z"/>
<path style="fill:#51e8f7; stroke:none;" d="M149 29L150 30L149 29z"/>
<path style="fill:#b1f5fc; stroke:none;" d="M150 29L151 30L150 29z"/>
<path style="fill:#76edf9; stroke:none;" d="M156 29L157 30L156 29M185 29L186 30L185 29z"/>
<path style="fill:#b1f5fc; stroke:none;" d="M118 30L119 31L118 30M148 30L149 31L148 30M157 30L158 31L157 30z"/>
<path style="fill:#76edf9; stroke:none;" d="M158 30L159 31L158 30z"/>
<path style="fill:#51e8f7; stroke:none;" d="M186 30L187 31L186 30z"/>
<path style="fill:#b1f5fc; stroke:none;" d="M187 30L188 31L187 30M116 31L117 32L116 31z"/>
<path style="fill:#51e8f7; stroke:none;" d="M117 31L118 32L117 31z"/>
<path style="fill:#76edf9; stroke:none;" d="M146 31L147 32L146 31z"/>
<path style="fill:#b1f5fc; stroke:none;" d="M159 31L160 32L159 31z"/>
<path style="fill:#51e8f7; stroke:none;" d="M160 31L161 32L160 31M188 31L189 32L188 31z"/>
<path style="fill:#b1f5fc; stroke:none;" d="M189 31L190 32L189 31M114 32L115 33L114 32z"/>
<path style="fill:#76edf9; stroke:none;" d="M115 32L116 33L115 32M144 32L145 33L144 32z"/>
<path style="fill:#b1f5fc; stroke:none;" d="M161 32L162 33L161 32z"/>
<path style="fill:#76edf9; stroke:none;" d="M190 32L191 33L190 32M113 33L114 34L113 33z"/>
<path style="fill:#51e8f7; stroke:none;" d="M142 33L143 34L142 33z"/>
<path style="fill:#b1f5fc; stroke:none;" d="M143 33L144 34L143 33z"/>
<path style="fill:#76edf9; stroke:none;" d="M163 33L164 34L163 33z"/>
<path style="fill:#b1f5fc; stroke:none;" d="M192 33L193 34L192 33M111 34L112 35L111 34z"/>
<path style="fill:#51e8f7; stroke:none;" d="M140 34L141 35L140 34z"/>
<path style="fill:#b1f5fc; stroke:none;" d="M141 34L142 35L141 34M164 34L165 35L164 34z"/>
<path style="fill:#51e8f7; stroke:none;" d="M165 34L166 35L165 34M193 34L194 35L193 34z"/>
<path style="fill:#b1f5fc; stroke:none;" d="M194 34L195 35L194 34M109 35L110 36L109 35z"/>
<path style="fill:#51e8f7; stroke:none;" d="M110 35L111 36L110 35z"/>
<path style="fill:#76edf9; stroke:none;" d="M139 35L140 36L139 35z"/>
<path style="fill:#b1f5fc; stroke:none;" d="M166 35L167 36L166 35z"/>
<path style="fill:#76edf9; stroke:none;" d="M195 35L196 36L195 35z"/>
<path style="fill:#b1f5fc; stroke:none;" d="M107 36L108 37L107 36z"/>
<path style="fill:#76edf9; stroke:none;" d="M108 36L109 37L108 36M137 36L138 37L137 36M168 36L169 37L168 36M197 36L198 37L197 36M106 37L107 38L106 37z"/>
<path style="fill:#51e8f7; stroke:none;" d="M135 37L136 38L135 37z"/>
<path style="fill:#b1f5fc; stroke:none;" d="M136 37L137 38L136 37M169 37L170 38L169 37z"/>
<path style="fill:#76edf9; stroke:none;" d="M170 37L171 38L170 37z"/>
<path style="fill:#51e8f7; stroke:none;" d="M198 37L199 38L198 37z"/>
<path style="fill:#b1f5fc; stroke:none;" d="M199 37L200 38L199 37M104 38L105 39L104 38z"/>
<path style="fill:#51e8f7; stroke:none;" d="M133 38L134 39L133 38z"/>
<path style="fill:#b1f5fc; stroke:none;" d="M134 38L135 39L134 38M171 38L172 39L171 38z"/>
<path style="fill:#51e8f7; stroke:none;" d="M172 38L173 39L172 38M200 38L201 39L200 38z"/>
<path style="fill:#b1f5fc; stroke:none;" d="M201 38L202 39L201 38M102 39L103 40L102 39z"/>
<path style="fill:#51e8f7; stroke:none;" d="M103 39L104 40L103 39z"/>
<path style="fill:#76edf9; stroke:none;" d="M132 39L133 40L132 39z"/>
<path style="fill:#b1f5fc; stroke:none;" d="M173 39L174 40L173 39z"/>
<path style="fill:#76edf9; stroke:none;" d="M202 39L203 40L202 39z"/>
<path style="fill:#b1f5fc; stroke:none;" d="M100 40L101 41L100 40z"/>
<path style="fill:#76edf9; stroke:none;" d="M101 40L102 41L101 40M130 40L131 41L130 40M175 40L176 41L175 40z"/>
<path style="fill:#b1f5fc; stroke:none;" d="M204 40L205 41L204 40z"/>
<path style="fill:#76edf9; stroke:none;" d="M99 41L100 42L99 41z"/>
<path style="fill:#51e8f7; stroke:none;" d="M128 41L129 42L128 41z"/>
<path style="fill:#b1f5fc; stroke:none;" d="M129 41L130 42L129 41M176 41L177 42L176 41z"/>
<path style="fill:#51e8f7; stroke:none;" d="M177 41L178 42L177 41M205 41L206 42L205 41z"/>
<path style="fill:#b1f5fc; stroke:none;" d="M206 41L207 42L206 41M97 42L98 43L97 42z"/>
<path style="fill:#51e8f7; stroke:none;" d="M126 42L127 43L126 42z"/>
<path style="fill:#b1f5fc; stroke:none;" d="M127 42L128 43L127 42M178 42L179 43L178 42z"/>
<path style="fill:#76edf9; stroke:none;" d="M207 42L208 43L207 42z"/>
<path style="fill:#b1f5fc; stroke:none;" d="M95 43L96 44L95 43z"/>
<path style="fill:#51e8f7; stroke:none;" d="M96 43L97 44L96 43z"/>
<path style="fill:#76edf9; stroke:none;" d="M125 43L126 44L125 43M180 43L181 44L180 43M209 43L210 44L209 43z"/>
<path style="fill:#b1f5fc; stroke:none;" d="M93 44L94 45L93 44z"/>
<path style="fill:#76edf9; stroke:none;" d="M94 44L95 45L94 44M123 44L124 45L123 44z"/>
<path style="fill:#b1f5fc; stroke:none;" d="M181 44L182 45L181 44z"/>
<path style="fill:#76edf9; stroke:none;" d="M182 44L183 45L182 44z"/>
<path style="fill:#51e8f7; stroke:none;" d="M210 44L211 45L210 44z"/>
<path style="fill:#b1f5fc; stroke:none;" d="M211 44L212 45L211 44z"/>
<path style="fill:#76edf9; stroke:none;" d="M92 45L93 46L92 45z"/>
<path style="fill:#51e8f7; stroke:none;" d="M121 45L122 46L121 45z"/>
<path style="fill:#b1f5fc; stroke:none;" d="M122 45L123 46L122 45M183 45L184 46L183 45z"/>
<path style="fill:#51e8f7; stroke:none;" d="M184 45L185 46L184 45M212 45L213 46L212 45z"/>
<path style="fill:#b1f5fc; stroke:none;" d="M213 45L214 46L213 45M90 46L91 47L90 46z"/>
<path style="fill:#51e8f7; stroke:none;" d="M119 46L120 47L119 46z"/>
<path style="fill:#b1f5fc; stroke:none;" d="M120 46L121 47L120 46z"/>
<path style="fill:#76edf9; stroke:none;" d="M185 46L186 47L185 46M214 46L215 47L214 46z"/>
<path style="fill:#b1f5fc; stroke:none;" d="M88 47L89 48L88 47z"/>
<path style="fill:#51e8f7; stroke:none;" d="M89 47L90 48L89 47z"/>
<path style="fill:#76edf9; stroke:none;" d="M118 47L119 48L118 47M187 47L188 48L187 47z"/>
<path style="fill:#b1f5fc; stroke:none;" d="M216 47L217 48L216 47M86 48L87 49L86 48z"/>
<path style="fill:#76edf9; stroke:none;" d="M87 48L88 49L87 48M116 48L117 49L116 48z"/>
<path style="fill:#b1f5fc; stroke:none;" d="M188 48L189 49L188 48z"/>
<path style="fill:#51e8f7; stroke:none;" d="M189 48L190 49L189 48M217 48L218 49L217 48z"/>
<path style="fill:#b1f5fc; stroke:none;" d="M218 48L219 49L218 48z"/>
<path style="fill:#76edf9; stroke:none;" d="M85 49L86 50L85 49z"/>
<path style="fill:#51e8f7; stroke:none;" d="M114 49L115 50L114 49z"/>
<path style="fill:#b1f5fc; stroke:none;" d="M115 49L116 50L115 49M190 49L191 50L190 49z"/>
<path style="fill:#76edf9; stroke:none;" d="M219 49L220 50L219 49z"/>
<path style="fill:#b1f5fc; stroke:none;" d="M83 50L84 51L83 50z"/>
<path style="fill:#51e8f7; stroke:none;" d="M112 50L113 51L112 50z"/>
<path style="fill:#b1f5fc; stroke:none;" d="M113 50L114 51L113 50z"/>
<path style="fill:#76edf9; stroke:none;" d="M192 50L193 51L192 50M221 50L222 51L221 50z"/>
<path style="fill:#b1f5fc; stroke:none;" d="M81 51L82 52L81 51z"/>
<path style="fill:#51e8f7; stroke:none;" d="M82 51L83 52L82 51z"/>
<path style="fill:#b1f5fc; stroke:none;" d="M111 51L112 52L111 51M193 51L194 52L193 51z"/>
<path style="fill:#76edf9; stroke:none;" d="M194 51L195 52L194 51z"/>
<path style="fill:#51e8f7; stroke:none;" d="M222 51L223 52L222 51z"/>
<path style="fill:#b1f5fc; stroke:none;" d="M223 51L224 52L223 51M79 52L80 53L79 52z"/>
<path style="fill:#76edf9; stroke:none;" d="M80 52L81 53L80 52M109 52L110 53L109 52z"/>
<path style="fill:#b1f5fc; stroke:none;" d="M195 52L196 53L195 52z"/>
<path style="fill:#51e8f7; stroke:none;" d="M196 52L197 53L196 52z"/>
<path style="fill:#76edf9; stroke:none;" d="M224 52L225 53L224 52z"/>
<path style="fill:#b1f5fc; stroke:none;" d="M225 52L226 53L225 52z"/>
<path style="fill:#76edf9; stroke:none;" d="M78 53L79 54L78 53z"/>
<path style="fill:#51e8f7; stroke:none;" d="M107 53L108 54L107 53z"/>
<path style="fill:#b1f5fc; stroke:none;" d="M108 53L109 54L108 53z"/>
<path style="fill:#76edf9; stroke:none;" d="M197 53L198 54L197 53M226 53L227 54L226 53z"/>
<path style="fill:#b1f5fc; stroke:none;" d="M76 54L77 55L76 54z"/>
<path style="fill:#51e8f7; stroke:none;" d="M105 54L106 55L105 54z"/>
<path style="fill:#b1f5fc; stroke:none;" d="M106 54L107 55L106 54z"/>
<path style="fill:#76edf9; stroke:none;" d="M199 54L200 55L199 54z"/>
<path style="fill:#b1f5fc; stroke:none;" d="M228 54L229 55L228 54M74 55L75 56L74 55z"/>
<path style="fill:#51e8f7; stroke:none;" d="M75 55L76 56L75 55z"/>
<path style="fill:#b1f5fc; stroke:none;" d="M104 55L105 56L104 55M200 55L201 56L200 55z"/>
<path style="fill:#51e8f7; stroke:none;" d="M201 55L202 56L201 55M229 55L230 56L229 55z"/>
<path style="fill:#b1f5fc; stroke:none;" d="M230 55L231 56L230 55M72 56L73 57L72 56z"/>
<path style="fill:#76edf9; stroke:none;" d="M73 56L74 57L73 56M102 56L103 57L102 56z"/>
<path style="fill:#b1f5fc; stroke:none;" d="M202 56L203 57L202 56z"/>
<path style="fill:#76edf9; stroke:none;" d="M231 56L232 57L231 56M71 57L72 58L71 57z"/>
<path style="fill:#51e8f7; stroke:none;" d="M100 57L101 58L100 57z"/>
<path style="fill:#b1f5fc; stroke:none;" d="M101 57L102 58L101 57z"/>
<path style="fill:#76edf9; stroke:none;" d="M204 57L205 58L204 57M233 57L234 58L233 57z"/>
<path style="fill:#b1f5fc; stroke:none;" d="M69 58L70 59L69 58z"/>
<path style="fill:#51e8f7; stroke:none;" d="M98 58L99 59L98 58z"/>
<path style="fill:#b1f5fc; stroke:none;" d="M99 58L100 59L99 58M205 58L206 59L205 58z"/>
<path style="fill:#76edf9; stroke:none;" d="M206 58L207 59L206 58z"/>
<path style="fill:#51e8f7; stroke:none;" d="M234 58L235 59L234 58z"/>
<path style="fill:#b1f5fc; stroke:none;" d="M235 58L236 59L235 58M67 59L68 60L67 59z"/>
<path style="fill:#51e8f7; stroke:none;" d="M68 59L69 60L68 59z"/>
<path style="fill:#b1f5fc; stroke:none;" d="M97 59L98 60L97 59M207 59L208 60L207 59z"/>
<path style="fill:#51e8f7; stroke:none;" d="M208 59L209 60L208 59M236 59L237 60L236 59z"/>
<path style="fill:#b1f5fc; stroke:none;" d="M237 59L238 60L237 59M65 60L66 61L65 60z"/>
<path style="fill:#51e8f7; stroke:none;" d="M66 60L67 61L66 60z"/>
<path style="fill:#76edf9; stroke:none;" d="M95 60L96 61L95 60M209 60L210 61L209 60M238 60L239 61L238 60M64 61L65 62L64 61z"/>
<path style="fill:#51e8f7; stroke:none;" d="M93 61L94 62L93 61z"/>
<path style="fill:#b1f5fc; stroke:none;" d="M94 61L95 62L94 61z"/>
<path style="fill:#76edf9; stroke:none;" d="M211 61L212 62L211 61z"/>
<path style="fill:#b1f5fc; stroke:none;" d="M240 61L241 62L240 61M62 62L63 63L62 62z"/>
<path style="fill:#51e8f7; stroke:none;" d="M91 62L92 63L91 62z"/>
<path style="fill:#b1f5fc; stroke:none;" d="M92 62L93 63L92 62M212 62L213 63L212 62z"/>
<path style="fill:#51e8f7; stroke:none;" d="M213 62L214 63L213 62M241 62L242 63L241 62z"/>
<path style="fill:#b1f5fc; stroke:none;" d="M242 62L243 63L242 62M60 63L61 64L60 63z"/>
<path style="fill:#51e8f7; stroke:none;" d="M61 63L62 64L61 63z"/>
<path style="fill:#b1f5fc; stroke:none;" d="M90 63L91 64L90 63M214 63L215 64L214 63z"/>
<path style="fill:#76edf9; stroke:none;" d="M243 63L244 64L243 63z"/>
<path style="fill:#b1f5fc; stroke:none;" d="M58 64L59 65L58 64z"/>
<path style="fill:#51e8f7; stroke:none;" d="M59 64L60 65L59 64z"/>
<path style="fill:#76edf9; stroke:none;" d="M88 64L89 65L88 64M216 64L217 65L216 64M245 64L246 65L245 64M57 65L58 66L57 65M86 65L87 66L86 65z"/>
<path style="fill:#b1f5fc; stroke:none;" d="M87 65L88 66L87 65M217 65L218 66L217 65z"/>
<path style="fill:#76edf9; stroke:none;" d="M218 65L219 66L218 65z"/>
<path style="fill:#51e8f7; stroke:none;" d="M246 65L247 66L246 65z"/>
<path style="fill:#b1f5fc; stroke:none;" d="M247 65L248 66L247 65M55 66L56 67L55 66z"/>
<path style="fill:#51e8f7; stroke:none;" d="M84 66L85 67L84 66z"/>
<path style="fill:#b1f5fc; stroke:none;" d="M85 66L86 67L85 66M219 66L220 67L219 66z"/>
<path style="fill:#51e8f7; stroke:none;" d="M220 66L221 67L220 66z"/>
<path style="fill:#76edf9; stroke:none;" d="M248 66L249 67L248 66z"/>
<path style="fill:#b1f5fc; stroke:none;" d="M249 66L250 67L249 66M53 67L54 68L53 67z"/>
<path style="fill:#51e8f7; stroke:none;" d="M54 67L55 68L54 67z"/>
<path style="fill:#b1f5fc; stroke:none;" d="M83 67L84 68L83 67z"/>
<path style="fill:#76edf9; stroke:none;" d="M221 67L222 68L221 67M250 67L251 68L250 67z"/>
<path style="fill:#b1f5fc; stroke:none;" d="M51 68L52 69L51 68z"/>
<path style="fill:#51e8f7; stroke:none;" d="M52 68L53 69L52 68z"/>
<path style="fill:#76edf9; stroke:none;" d="M81 68L82 69L81 68M223 68L224 69L223 68z"/>
<path style="fill:#b1f5fc; stroke:none;" d="M252 68L253 69L252 68z"/>
<path style="fill:#76edf9; stroke:none;" d="M50 69L51 70L50 69M79 69L80 70L79 69z"/>
<path style="fill:#b1f5fc; stroke:none;" d="M80 69L81 70L80 69M224 69L225 70L224 69z"/>
<path style="fill:#51e8f7; stroke:none;" d="M225 69L226 70L225 69M253 69L254 70L253 69z"/>
<path style="fill:#b1f5fc; stroke:none;" d="M254 69L255 70L254 69z"/>
<path style="fill:#76edf9; stroke:none;" d="M48 70L49 71L48 70z"/>
<path style="fill:#51e8f7; stroke:none;" d="M77 70L78 71L77 70z"/>
<path style="fill:#b1f5fc; stroke:none;" d="M78 70L79 71L78 70M226 70L227 71L226 70z"/>
<path style="fill:#76edf9; stroke:none;" d="M255 70L256 71L255 70z"/>
<path style="fill:#b1f5fc; stroke:none;" d="M46 71L47 72L46 71z"/>
<path style="fill:#51e8f7; stroke:none;" d="M47 71L48 72L47 71z"/>
<path style="fill:#b1f5fc; stroke:none;" d="M76 71L77 72L76 71z"/>
<path style="fill:#76edf9; stroke:none;" d="M228 71L229 72L228 71M257 71L258 72L257 71z"/>
<path style="fill:#b1f5fc; stroke:none;" d="M44 72L45 73L44 72z"/>
<path style="fill:#51e8f7; stroke:none;" d="M45 72L46 73L45 72z"/>
<path style="fill:#76edf9; stroke:none;" d="M74 72L75 73L74 72z"/>
<path style="fill:#b1f5fc; stroke:none;" d="M229 72L230 73L229 72z"/>
<path style="fill:#51e8f7; stroke:none;" d="M230 72L231 73L230 72M258 72L259 73L258 72z"/>
<path style="fill:#b1f5fc; stroke:none;" d="M259 72L260 73L259 72z"/>
<path style="fill:#76edf9; stroke:none;" d="M43 73L44 74L43 73M72 73L73 74L72 73z"/>
<path style="fill:#b1f5fc; stroke:none;" d="M73 73L74 74L73 73M231 73L232 74L231 73z"/>
<path style="fill:#51e8f7; stroke:none;" d="M232 73L233 74L232 73z"/>
<path style="fill:#76edf9; stroke:none;" d="M260 73L261 74L260 73z"/>
<path style="fill:#b1f5fc; stroke:none;" d="M261 73L262 74L261 73z"/>
<path style="fill:#76edf9; stroke:none;" d="M41 74L42 75L41 74z"/>
<path style="fill:#51e8f7; stroke:none;" d="M70 74L71 75L70 74z"/>
<path style="fill:#b1f5fc; stroke:none;" d="M71 74L72 75L71 74z"/>
<path style="fill:#76edf9; stroke:none;" d="M233 74L234 75L233 74M262 74L263 75L262 74z"/>
<path style="fill:#b1f5fc; stroke:none;" d="M39 75L40 76L39 75z"/>
<path style="fill:#51e8f7; stroke:none;" d="M40 75L41 76L40 75z"/>
<path style="fill:#b1f5fc; stroke:none;" d="M69 75L70 76L69 75z"/>
<path style="fill:#76edf9; stroke:none;" d="M235 75L236 76L235 75z"/>
<path style="fill:#b1f5fc; stroke:none;" d="M264 75L265 76L264 75M37 76L38 77L37 76z"/>
<path style="fill:#51e8f7; stroke:none;" d="M38 76L39 77L38 76z"/>
<path style="fill:#76edf9; stroke:none;" d="M67 76L68 77L67 76z"/>
<path style="fill:#b1f5fc; stroke:none;" d="M236 76L237 77L236 76z"/>
<path style="fill:#51e8f7; stroke:none;" d="M237 76L238 77L237 76M265 76L266 77L265 76z"/>
<path style="fill:#b1f5fc; stroke:none;" d="M266 76L267 77L266 76z"/>
<path style="fill:#76edf9; stroke:none;" d="M36 77L37 78L36 77M65 77L66 78L65 77z"/>
<path style="fill:#b1f5fc; stroke:none;" d="M66 77L67 78L66 77M238 77L239 78L238 77z"/>
<path style="fill:#76edf9; stroke:none;" d="M267 77L268 78L267 77M34 78L35 79L34 78z"/>
<path style="fill:#51e8f7; stroke:none;" d="M63 78L64 79L63 78z"/>
<path style="fill:#b1f5fc; stroke:none;" d="M64 78L65 79L64 78z"/>
<path style="fill:#76edf9; stroke:none;" d="M240 78L241 79L240 78z"/>
<path style="fill:#b1f5fc; stroke:none;" d="M269 78L270 79L269 78M32 79L33 80L32 79z"/>
<path style="fill:#51e8f7; stroke:none;" d="M33 79L34 80L33 79z"/>
<path style="fill:#b1f5fc; stroke:none;" d="M62 79L63 80L62 79M241 79L242 80L241 79z"/>
<path style="fill:#51e8f7; stroke:none;" d="M242 79L243 80L242 79M270 79L271 80L270 79z"/>
<path style="fill:#b1f5fc; stroke:none;" d="M271 79L272 80L271 79M30 80L31 81L30 80z"/>
<path style="fill:#51e8f7; stroke:none;" d="M31 80L32 81L31 80z"/>
<path style="fill:#76edf9; stroke:none;" d="M60 80L61 81L60 80z"/>
<path style="fill:#b1f5fc; stroke:none;" d="M243 80L244 81L243 80z"/>
<path style="fill:#51e8f7; stroke:none;" d="M244 80L245 81L244 80z"/>
<path style="fill:#76edf9; stroke:none;" d="M272 80L273 81L272 80z"/>
<path style="fill:#b1f5fc; stroke:none;" d="M273 80L274 81L273 80z"/>
<path style="fill:#76edf9; stroke:none;" d="M29 81L30 82L29 81M58 81L59 82L58 81z"/>
<path style="fill:#b1f5fc; stroke:none;" d="M59 81L60 82L59 81z"/>
<path style="fill:#76edf9; stroke:none;" d="M245 81L246 82L245 81M274 81L275 82L274 81M27 82L28 83L27 82z"/>
<path style="fill:#51e8f7; stroke:none;" d="M56 82L57 83L56 82z"/>
<path style="fill:#b1f5fc; stroke:none;" d="M57 82L58 83L57 82z"/>
<path style="fill:#76edf9; stroke:none;" d="M247 82L248 83L247 82z"/>
<path style="fill:#b1f5fc; stroke:none;" d="M276 82L277 83L276 82M25 83L26 84L25 83z"/>
<path style="fill:#51e8f7; stroke:none;" d="M26 83L27 84L26 83z"/>
<path style="fill:#b1f5fc; stroke:none;" d="M55 83L56 84L55 83M248 83L249 84L248 83z"/>
<path style="fill:#51e8f7; stroke:none;" d="M249 83L250 84L249 83M277 83L278 84L277 83z"/>
<path style="fill:#b1f5fc; stroke:none;" d="M278 83L279 84L278 83M23 84L24 85L23 84z"/>
<path style="fill:#51e8f7; stroke:none;" d="M24 84L25 85L24 84z"/>
<path style="fill:#76edf9; stroke:none;" d="M53 84L54 85L53 84z"/>
<path style="fill:#b1f5fc; stroke:none;" d="M250 84L251 85L250 84z"/>
<path style="fill:#76edf9; stroke:none;" d="M279 84L280 85L279 84M22 85L23 86L22 85M51 85L52 86L51 85z"/>
<path style="fill:#b1f5fc; stroke:none;" d="M52 85L53 86L52 85z"/>
<path style="fill:#76edf9; stroke:none;" d="M252 85L253 86L252 85z"/>
<path style="fill:#b1f5fc; stroke:none;" d="M281 85L282 86L281 85z"/>
<path style="fill:#76edf9; stroke:none;" d="M20 86L21 87L20 86z"/>
<path style="fill:#51e8f7; stroke:none;" d="M49 86L50 87L49 86z"/>
<path style="fill:#b1f5fc; stroke:none;" d="M50 86L51 87L50 86M253 86L254 87L253 86z"/>
<path style="fill:#51e8f7; stroke:none;" d="M254 86L255 87L254 86M282 86L283 87L282 86z"/>
<path style="fill:#b1f5fc; stroke:none;" d="M283 86L284 87L283 86M18 87L19 88L18 87M48 87L49 88L48 87M255 87L256 88L255 87z"/>
<path style="fill:#51e8f7; stroke:none;" d="M256 87L257 88L256 87z"/>
<path style="fill:#76edf9; stroke:none;" d="M284 87L285 88L284 87z"/>
<path style="fill:#b1f5fc; stroke:none;" d="M285 87L286 88L285 87M16 88L17 89L16 88z"/>
<path style="fill:#51e8f7; stroke:none;" d="M17 88L18 89L17 88z"/>
<path style="fill:#76edf9; stroke:none;" d="M46 88L47 89L46 88M257 88L258 89L257 88M286 88L287 89L286 88z"/>
<path style="fill:#b1f5fc; stroke:none;" d="M15 89L15 114L16 114L15 89z"/>
<path style="fill:#76edf9; stroke:none;" d="M44 89L45 90L44 89z"/>
<path style="fill:#b1f5fc; stroke:none;" d="M45 89L46 90L45 89z"/>
<path style="fill:#76edf9; stroke:none;" d="M259 89L260 90L259 89z"/>
<path style="fill:#b1f5fc; stroke:none;" d="M288 89L289 90L288 89z"/>
<path style="fill:#51e8f7; stroke:none;" d="M42 90L43 91L42 90z"/>
<path style="fill:#b1f5fc; stroke:none;" d="M43 90L44 91L43 90M260 90L261 91L260 90z"/>
<path style="fill:#51e8f7; stroke:none;" d="M261 90L262 91L261 90M289 90L290 91L289 90z"/>
<path style="fill:#b1f5fc; stroke:none;" d="M290 90L291 91L290 90M41 91L42 92L41 91M262 91L263 92L262 91z"/>
<path style="fill:#76edf9; stroke:none;" d="M291 91L292 92L291 91M39 92L40 93L39 92M264 92L265 93L264 92z"/>
<path style="fill:#b1f5fc; stroke:none;" d="M293 92L294 93L293 92z"/>
<path style="fill:#76edf9; stroke:none;" d="M37 93L38 94L37 93z"/>
<path style="fill:#b1f5fc; stroke:none;" d="M265 93L266 94L265 93z"/>
<path style="fill:#51e8f7; stroke:none;" d="M266 93L267 94L266 93M294.333 93.6667L294.667 94.3333L294.333 93.6667M35 94L36 95L35 94z"/>
<path style="fill:#b1f5fc; stroke:none;" d="M36 94L37 95L36 94M267 94L268 95L267 94z"/>
<path style="fill:#51e8f7; stroke:none;" d="M268 94L269 95L268 94z"/>
<path style="fill:#b1f5fc; stroke:none;" d="M34 95L35 96L34 95z"/>
<path style="fill:#76edf9; stroke:none;" d="M269 95L270 96L269 95M294 95L294 133L295 133C295 122.089 298.211 105.036 294 95M32 96L33 97L32 96M271 96L272 97L271 96z"/>
<path style="fill:#51e8f7; stroke:none;" d="M30 97L31 98L30 97z"/>
<path style="fill:#b1f5fc; stroke:none;" d="M272 97L273 98L272 97z"/>
<path style="fill:#51e8f7; stroke:none;" d="M273 97L274 98L273 97z"/>
<path style="fill:#b1f5fc; stroke:none;" d="M30 98L30 119L31 119L30 98M274 98L275 99L274 98z"/>
<path style="fill:#76edf9; stroke:none;" d="M276 99L277 100L276 99z"/>
<path style="fill:#b1f5fc; stroke:none;" d="M277 100L278 101L277 100z"/>
<path style="fill:#51e8f7; stroke:none;" d="M278 100L279 101L278 100z"/>
<path style="fill:#b1f5fc; stroke:none;" d="M279 101L280 102L279 101z"/>
<path style="fill:#76edf9; stroke:none;" d="M15 114L15 153L16 153C16 141.828 19.3111 124.274 15 114z"/>
<path style="fill:#51e8f7; stroke:none;" d="M92 126L92 127L112 127L92 126z"/>
<path style="fill:#76edf9; stroke:none;" d="M112 126L112 127L124 127L112 126z"/>
<path style="fill:#b1f5fc; stroke:none;" d="M124 126L124 127L128 127L124 126z"/>
<path style="fill:#76edf9; stroke:none;" d="M171 126L171 222L172 222L172 155L171 126z"/>
<path style="fill:#51e8f7; stroke:none;" d="M172 126L172 127L221 127C208.348 121.691 185.788 126 172 126z"/>
<path style="fill:#b1f5fc; stroke:none;" d="M221 126L221 139L222 139L221 126z"/>
<path style="fill:#2be3f5; stroke:none;" d="M92 127L92 222L105 222L105 182C122.924 182 129.863 192.164 138.14 207C140.407 211.064 142.737 218.254 146.637 220.972C150.039 223.343 157.024 222 161 222C155.791 209.911 144.118 184.774 132 179L132 177C151.586 171.345 157.113 143.665 139.999 131.649C127.698 123.012 106.244 127 92 127z"/>
<path style="fill:#51e8f7; stroke:none;" d="M129 127L130 128L129 127z"/>
<path style="fill:#76edf9; stroke:none;" d="M130 127L131 128L130 127z"/>
<path style="fill:#b1f5fc; stroke:none;" d="M131.667 127.333L132.333 127.667L131.667 127.333z"/>
<path style="fill:#2be3f5; stroke:none;" d="M172 127L172 222L185 222L185 181L218 181L218 169L185 169L185 139L221 139L221 127L172 127z"/>
<path style="fill:#51e8f7; stroke:none;" d="M133 128L134 129L133 128z"/>
<path style="fill:#b1f5fc; stroke:none;" d="M134 128L135 129L134 128z"/>
<path style="fill:#76edf9; stroke:none;" d="M136 129L137 130L136 129z"/>
<path style="fill:#b1f5fc; stroke:none;" d="M137 129L138 130L137 129M279 129L279 183L280 183L280 147L279 129z"/>
<path style="fill:#76edf9; stroke:none;" d="M138 130L139 131L138 130z"/>
<path style="fill:#b1f5fc; stroke:none;" d="M140 131L141 132L140 131z"/>
<path style="fill:#76edf9; stroke:none;" d="M141 132L142 133L141 132z"/>
<path style="fill:#51e8f7; stroke:none;" d="M142 133L143 134L142 133z"/>
<path style="fill:#b1f5fc; stroke:none;" d="M294 133L294 187L295 187L295 151L294 133z"/>
<path style="fill:#51e8f7; stroke:none;" d="M143 134L144 135L143 134M144 135L145 136L144 135M145 136L146 137L145 136z"/>
<path style="fill:#b1f5fc; stroke:none;" d="M146 137L147 138L146 137z"/>
<path style="fill:#51e8f7; stroke:none;" d="M108 138L108 139L121 139L108 138z"/>
<path style="fill:#76edf9; stroke:none;" d="M105 139L105 170L106 170L105 139z"/>
<path style="fill:#ffffff; stroke:none;" d="M106 139L106 170C113.396 170 122.388 171.071 128.985 166.992C136.93 162.078 139.38 147.728 130.895 142.005C124.05 137.389 113.805 139 106 139z"/>
<path style="fill:#b1f5fc; stroke:none;" d="M124.667 139.333L125.333 139.667L124.667 139.333z"/>
<path style="fill:#76edf9; stroke:none;" d="M126 139L127 140L126 139M147 139L148 140L147 139z"/>
<path style="fill:#b1f5fc; stroke:none;" d="M128 140L129 141L128 140z"/>
<path style="fill:#51e8f7; stroke:none;" d="M129 140L130 141L129 140z"/>
<path style="fill:#b1f5fc; stroke:none;" d="M148 140L149 141L148 140M130 141L131 142L130 141z"/>
<path style="fill:#76edf9; stroke:none;" d="M148 141L149 142L148 141M132 142L133 143L132 142M133 143L134 144L133 143z"/>
<path style="fill:#b1f5fc; stroke:none;" d="M149 143L150 144L149 143z"/>
<path style="fill:#51e8f7; stroke:none;" d="M134 144L135 145L134 144z"/>
<path style="fill:#76edf9; stroke:none;" d="M149 144L150 145L149 144z"/>
<path style="fill:#b1f5fc; stroke:none;" d="M134 145L135 146L134 145z"/>
<path style="fill:#76edf9; stroke:none;" d="M135 146L136 147L135 146z"/>
<path style="fill:#b1f5fc; stroke:none;" d="M150 146L150 149L151 149L150 146M135 147L136 148L135 147z"/>
<path style="fill:#76edf9; stroke:none;" d="M136 149L137 150L136 149M150 149L150 152L151 152L150 149z"/>
<path style="fill:#b1f5fc; stroke:none;" d="M136 150L136 156L137 156L136 150z"/>
<path style="fill:#51e8f7; stroke:none;" d="M150.333 152.667L150.667 153.333L150.333 152.667M15 153L15 182L16 182L15 153z"/>
<path style="fill:#76edf9; stroke:none;" d="M150 154L150 157L151 157L150 154M136 156L137 157L136 156z"/>
<path style="fill:#51e8f7; stroke:none;" d="M136 157L137 158L136 157z"/>
<path style="fill:#b1f5fc; stroke:none;" d="M150 157L151 158L150 157M135 159L136 160L135 159z"/>
<path style="fill:#51e8f7; stroke:none;" d="M149 159L150 160L149 159z"/>
<path style="fill:#76edf9; stroke:none;" d="M135 160L136 161L135 160M149 160L150 161L149 160z"/>
<path style="fill:#b1f5fc; stroke:none;" d="M134 161L135 162L134 161M149 161L150 162L149 161z"/>
<path style="fill:#51e8f7; stroke:none;" d="M134 162L135 163L134 162M148 162L149 163L148 162z"/>
<path style="fill:#76edf9; stroke:none;" d="M133 163L134 164L133 163z"/>
<path style="fill:#b1f5fc; stroke:none;" d="M148 163L149 164L148 163M132 164L133 165L132 164z"/>
<path style="fill:#51e8f7; stroke:none;" d="M29 165L29 195L30 195L29 165z"/>
<path style="fill:#b1f5fc; stroke:none;" d="M131 165L132 166L131 165z"/>
<path style="fill:#76edf9; stroke:none;" d="M147 165L148 166L147 165M130 166L131 167L130 166z"/>
<path style="fill:#51e8f7; stroke:none;" d="M146 166L147 167L146 166z"/>
<path style="fill:#b1f5fc; stroke:none;" d="M128 167L129 168L128 167z"/>
<path style="fill:#51e8f7; stroke:none;" d="M129 167L130 168L129 167z"/>
<path style="fill:#b1f5fc; stroke:none;" d="M146 167L147 168L146 167M126 168L127 169L126 168z"/>
<path style="fill:#51e8f7; stroke:none;" d="M127 168L128 169L127 168z"/>
<path style="fill:#76edf9; stroke:none;" d="M145 168L146 169L145 168M185 168L185 169L218 169L218 181L219 181L219 168L185 168z"/>
<path style="fill:#b1f5fc; stroke:none;" d="M121.667 169.333L122.333 169.667L121.667 169.333z"/>
<path style="fill:#76edf9; stroke:none;" d="M123 169L124 170L123 169z"/>
<path style="fill:#51e8f7; stroke:none;" d="M124 169L125 170L124 169z"/>
<path style="fill:#76edf9; stroke:none;" d="M144 169L145 170L144 169M143 170L144 171L143 170M142 171L143 172L142 171M141 172L142 173L141 172z"/>
<path style="fill:#b1f5fc; stroke:none;" d="M140 173L141 174L140 173z"/>
<path style="fill:#76edf9; stroke:none;" d="M138 174L139 175L138 174z"/>
<path style="fill:#51e8f7; stroke:none;" d="M136 175L137 176L136 175z"/>
<path style="fill:#b1f5fc; stroke:none;" d="M137 175L138 176L137 175z"/>
<path style="fill:#51e8f7; stroke:none;" d="M134 176L135 177L134 176z"/>
<path style="fill:#b1f5fc; stroke:none;" d="M135 176L136 177L135 176z"/>
<path style="fill:#51e8f7; stroke:none;" d="M132 177L133 178L132 177z"/>
<path style="fill:#b1f5fc; stroke:none;" d="M133 177L134 178L133 177z"/>
<path style="fill:#76edf9; stroke:none;" d="M132 178L133 179L132 178z"/>
<path style="fill:#b1f5fc; stroke:none;" d="M134 179L135 180L134 179M135 180L136 181L135 180M136 181L137 182L136 181z"/>
<path style="fill:#51e8f7; stroke:none;" d="M105 182L106 183L105 182z"/>
<path style="fill:#b1f5fc; stroke:none;" d="M106 182L106 183L115 183L106 182z"/>
<path style="fill:#76edf9; stroke:none;" d="M115.667 182.333L116.333 182.667L115.667 182.333z"/>
<path style="fill:#51e8f7; stroke:none;" d="M117 182L118 183L117 182z"/>
<path style="fill:#b1f5fc; stroke:none;" d="M137 182L138 183L137 182z"/>
<path style="fill:#76edf9; stroke:none;" d="M105 183L105 222L106 222C106 210.828 109.311 193.274 105 183M119 183L120 184L119 183M279 183L279 221L280 221C280 210.089 283.211 193.036 279 183M121 184L122 185L121 184z"/>
<path style="fill:#51e8f7; stroke:none;" d="M138 184L139 185L138 184z"/>
<path style="fill:#b1f5fc; stroke:none;" d="M122 185L123 186L122 185z"/>
<path style="fill:#76edf9; stroke:none;" d="M139 185L140 186L139 185z"/>
<path style="fill:#b1f5fc; stroke:none;" d="M123 186L124 187L123 186M140 186L141 187L140 186M124 187L125 188L124 187z"/>
<path style="fill:#51e8f7; stroke:none;" d="M140 187L141 188L140 187z"/>
<path style="fill:#b1f5fc; stroke:none;" d="M125 188L126 189L125 188z"/>
<path style="fill:#76edf9; stroke:none;" d="M141 188L142 189L141 188z"/>
<path style="fill:#b1f5fc; stroke:none;" d="M126 189L127 190L126 189M142 189L143 190L142 189M127 190L128 191L127 190z"/>
<path style="fill:#51e8f7; stroke:none;" d="M142 190L143 191L142 190z"/>
<path style="fill:#76edf9; stroke:none;" d="M128 191L129 192L128 191z"/>
<path style="fill:#b1f5fc; stroke:none;" d="M143 191L144 192L143 191z"/>
<path style="fill:#76edf9; stroke:none;" d="M129 192L130 193L129 192M130 193L131 194L130 193M144 193L145 194L144 193z"/>
<path style="fill:#b1f5fc; stroke:none;" d="M145 194L146 195L145 194z"/>
<path style="fill:#76edf9; stroke:none;" d="M29 195L29 233L30 233C30 222.089 33.2113 205.036 29 195z"/>
<path style="fill:#b1f5fc; stroke:none;" d="M131 195L132 196L131 195z"/>
<path style="fill:#51e8f7; stroke:none;" d="M145 195L146 196L145 195M132 196L133 197L132 196z"/>
<path style="fill:#76edf9; stroke:none;" d="M146 196L147 197L146 196z"/>
<path style="fill:#b1f5fc; stroke:none;" d="M132 197L133 198L132 197z"/>
<path style="fill:#51e8f7; stroke:none;" d="M133 198L134 199L133 198z"/>
<path style="fill:#76edf9; stroke:none;" d="M147 198L148 199L147 198z"/>
<path style="fill:#b1f5fc; stroke:none;" d="M133 199L134 200L133 199M148 199L149 200L148 199z"/>
<path style="fill:#76edf9; stroke:none;" d="M134 200L135 201L134 200z"/>
<path style="fill:#51e8f7; stroke:none;" d="M148 200L149 201L148 200z"/>
<path style="fill:#b1f5fc; stroke:none;" d="M149 201L150 202L149 201z"/>
<path style="fill:#76edf9; stroke:none;" d="M135 202L136 203L135 202M150 203L151 204L150 203z"/>
<path style="fill:#b1f5fc; stroke:none;" d="M136 204L137 205L136 204M151 204L152 205L151 204z"/>
<path style="fill:#51e8f7; stroke:none;" d="M137 205L138 206L137 205M151 205L152 206L151 205z"/>
<path style="fill:#b1f5fc; stroke:none;" d="M137 206L138 207L137 206M152 206L153 207L152 206z"/>
<path style="fill:#51e8f7; stroke:none;" d="M138 207L139 208L138 207z"/>
<path style="fill:#b1f5fc; stroke:none;" d="M138 208L139 209L138 208z"/>
<path style="fill:#76edf9; stroke:none;" d="M153 208L154 209L153 208M139 209L140 210L139 209z"/>
<path style="fill:#b1f5fc; stroke:none;" d="M154 209L155 210L154 209z"/>
<path style="fill:#51e8f7; stroke:none;" d="M154 210L155 211L154 210z"/>
<path style="fill:#76edf9; stroke:none;" d="M140 211L141 212L140 211z"/>
<path style="fill:#b1f5fc; stroke:none;" d="M155 211L156 212L155 211M141 213L142 214L141 213z"/>
<path style="fill:#76edf9; stroke:none;" d="M156 213L157 214L156 213z"/>
<path style="fill:#51e8f7; stroke:none;" d="M142 214L143 215L142 214z"/>
<path style="fill:#b1f5fc; stroke:none;" d="M142 215L143 216L142 215z"/>
<path style="fill:#51e8f7; stroke:none;" d="M157 215L158 216L157 215z"/>
<path style="fill:#76edf9; stroke:none;" d="M143 216L144 217L143 216z"/>
<path style="fill:#b1f5fc; stroke:none;" d="M158 216L159 217L158 216M143 217L144 218L143 217z"/>
<path style="fill:#76edf9; stroke:none;" d="M144 218L145 219L144 218M159 218L160 219L159 218M145 220L146 221L145 220M160 220L161 221L160 220z"/>
<path style="fill:#b1f5fc; stroke:none;" d="M161 221L162 222L161 221z"/>
<path style="fill:#51e8f7; stroke:none;" d="M279 221L279 248L280 248L279 221z"/>
<path style="fill:#b1f5fc; stroke:none;" d="M14 228L14 253L15 253L14 228M29 233L29 244L30 244L29 233z"/>
<path style="fill:#51e8f7; stroke:none;" d="M293 233L293 257L294 257L293 233z"/>
<path style="fill:#76edf9; stroke:none;" d="M29 244L30 245L29 244z"/>
<path style="fill:#51e8f7; stroke:none;" d="M30 245L31 246L30 245z"/>
<path style="fill:#b1f5fc; stroke:none;" d="M31 245L32 246L31 245z"/>
<path style="fill:#76edf9; stroke:none;" d="M32 246L33 247L32 246M34 247L35 248L34 247z"/>
<path style="fill:#51e8f7; stroke:none;" d="M35 248L36 249L35 248z"/>
<path style="fill:#b1f5fc; stroke:none;" d="M36 248L37 249L36 248M278 248L279 249L278 248z"/>
<path style="fill:#51e8f7; stroke:none;" d="M37 249L38 250L37 249z"/>
<path style="fill:#b1f5fc; stroke:none;" d="M38 249L39 250L38 249M276 249L277 250L276 249z"/>
<path style="fill:#76edf9; stroke:none;" d="M277 249L278 250L277 249M39 250L40 251L39 250M275 250L276 251L275 250z"/>
<path style="fill:#b1f5fc; stroke:none;" d="M41 251L42 252L41 251M273 251L274 252L273 251z"/>
<path style="fill:#51e8f7; stroke:none;" d="M42 252L43 253L42 252z"/>
<path style="fill:#b1f5fc; stroke:none;" d="M43 252L44 253L43 252M271 252L272 253L271 252z"/>
<path style="fill:#51e8f7; stroke:none;" d="M272 252L273 253L272 252z"/>
<path style="fill:#b1f5fc; stroke:none;" d="M15 253L16 254L15 253z"/>
<path style="fill:#76edf9; stroke:none;" d="M44 253L45 254L44 253z"/>
<path style="fill:#b1f5fc; stroke:none;" d="M269 253L270 254L269 253z"/>
<path style="fill:#76edf9; stroke:none;" d="M270 253L271 254L270 253M17 254L18 255L17 254M46 254L47 255L46 254M268 254L269 255L268 254z"/>
<path style="fill:#b1f5fc; stroke:none;" d="M18 255L19 256L18 255z"/>
<path style="fill:#76edf9; stroke:none;" d="M19 255L20 256L19 255z"/>
<path style="fill:#51e8f7; stroke:none;" d="M47 255L48 256L47 255z"/>
<path style="fill:#b1f5fc; stroke:none;" d="M48 255L49 256L48 255M266 255L267 256L266 255M20 256L21 257L20 256z"/>
<path style="fill:#51e8f7; stroke:none;" d="M21 256L22 257L21 256z"/>
<path style="fill:#76edf9; stroke:none;" d="M49 256L50 257L49 256z"/>
<path style="fill:#b1f5fc; stroke:none;" d="M50 256L51 257L50 256M264 256L265 257L264 256z"/>
<path style="fill:#51e8f7; stroke:none;" d="M265 256L266 257L265 256z"/>
<path style="fill:#76edf9; stroke:none;" d="M22 257L23 258L22 257M51 257L52 258L51 257z"/>
<path style="fill:#b1f5fc; stroke:none;" d="M262 257L263 258L262 257z"/>
<path style="fill:#76edf9; stroke:none;" d="M263 257L264 258L263 257M292 257L293 258L292 257M24 258L25 259L24 258z"/>
<path style="fill:#b1f5fc; stroke:none;" d="M53 258L54 259L53 258z"/>
<path style="fill:#76edf9; stroke:none;" d="M261 258L262 259L261 258z"/>
<path style="fill:#51e8f7; stroke:none;" d="M290 258L291 259L290 258z"/>
<path style="fill:#b1f5fc; stroke:none;" d="M291 258L292 259L291 258M25 259L26 260L25 259z"/>
<path style="fill:#51e8f7; stroke:none;" d="M26 259L27 260L26 259M54 259L55 260L54 259z"/>
<path style="fill:#b1f5fc; stroke:none;" d="M55 259L56 260L55 259M259 259L260 260L259 259z"/>
<path style="fill:#51e8f7; stroke:none;" d="M288 259L289 260L288 259z"/>
<path style="fill:#b1f5fc; stroke:none;" d="M289 259L290 260L289 259M27 260L28 261L27 260z"/>
<path style="fill:#76edf9; stroke:none;" d="M56 260L57 261L56 260z"/>
<path style="fill:#b1f5fc; stroke:none;" d="M257 260L258 261L257 260z"/>
<path style="fill:#51e8f7; stroke:none;" d="M258 260L259 261L258 260z"/>
<path style="fill:#76edf9; stroke:none;" d="M287 260L288 261L287 260M29 261L30 262L29 261M58 261L59 262L58 261z"/>
<path style="fill:#b1f5fc; stroke:none;" d="M255 261L256 262L255 261z"/>
<path style="fill:#76edf9; stroke:none;" d="M256 261L257 262L256 261M285 261L286 262L285 261z"/>
<path style="fill:#b1f5fc; stroke:none;" d="M30 262L31 263L30 262z"/>
<path style="fill:#51e8f7; stroke:none;" d="M31 262L32 263L31 262M59 262L60 263L59 262z"/>
<path style="fill:#b1f5fc; stroke:none;" d="M60 262L61 263L60 262z"/>
<path style="fill:#76edf9; stroke:none;" d="M254 262L255 263L254 262z"/>
<path style="fill:#51e8f7; stroke:none;" d="M283 262L284 263L283 262z"/>
<path style="fill:#b1f5fc; stroke:none;" d="M284 262L285 263L284 262M32 263L33 264L32 263z"/>
<path style="fill:#51e8f7; stroke:none;" d="M33 263L34 264L33 263M61 263L62 264L61 263z"/>
<path style="fill:#b1f5fc; stroke:none;" d="M62 263L63 264L62 263M252 263L253 264L252 263z"/>
<path style="fill:#51e8f7; stroke:none;" d="M281 263L282 264L281 263z"/>
<path style="fill:#b1f5fc; stroke:none;" d="M282 263L283 264L282 263z"/>
<path style="fill:#76edf9; stroke:none;" d="M34 264L35 265L34 264M63 264L64 265L63 264z"/>
<path style="fill:#b1f5fc; stroke:none;" d="M250 264L251 265L250 264z"/>
<path style="fill:#51e8f7; stroke:none;" d="M251 264L252 265L251 264z"/>
<path style="fill:#76edf9; stroke:none;" d="M280 264L281 265L280 264M36 265L37 266L36 265z"/>
<path style="fill:#b1f5fc; stroke:none;" d="M65 265L66 266L65 265M248 265L249 266L248 265z"/>
<path style="fill:#76edf9; stroke:none;" d="M249 265L250 266L249 265M278 265L279 266L278 265z"/>
<path style="fill:#b1f5fc; stroke:none;" d="M37 266L38 267L37 266z"/>
<path style="fill:#51e8f7; stroke:none;" d="M38 266L39 267L38 266M66 266L67 267L66 266z"/>
<path style="fill:#b1f5fc; stroke:none;" d="M67 266L68 267L67 266z"/>
<path style="fill:#76edf9; stroke:none;" d="M247 266L248 267L247 266z"/>
<path style="fill:#51e8f7; stroke:none;" d="M276 266L277 267L276 266z"/>
<path style="fill:#b1f5fc; stroke:none;" d="M277 266L278 267L277 266M39 267L40 268L39 267z"/>
<path style="fill:#76edf9; stroke:none;" d="M68 267L69 268L68 267z"/>
<path style="fill:#b1f5fc; stroke:none;" d="M245 267L246 268L245 267z"/>
<path style="fill:#51e8f7; stroke:none;" d="M274 267L275 268L274 267z"/>
<path style="fill:#b1f5fc; stroke:none;" d="M275 267L276 268L275 267z"/>
<path style="fill:#76edf9; stroke:none;" d="M41 268L42 269L41 268M70 268L71 269L70 268z"/>
<path style="fill:#b1f5fc; stroke:none;" d="M243 268L244 269L243 268z"/>
<path style="fill:#51e8f7; stroke:none;" d="M244 268L245 269L244 268z"/>
<path style="fill:#b1f5fc; stroke:none;" d="M273 268L274 269L273 268M42 269L43 270L42 269z"/>
<path style="fill:#51e8f7; stroke:none;" d="M43 269L44 270L43 269M71 269L72 270L71 269z"/>
<path style="fill:#b1f5fc; stroke:none;" d="M72 269L73 270L72 269M241 269L242 270L241 269z"/>
<path style="fill:#76edf9; stroke:none;" d="M242 269L243 270L242 269M271 269L272 270L271 269z"/>
<path style="fill:#b1f5fc; stroke:none;" d="M44 270L45 271L44 270z"/>
<path style="fill:#51e8f7; stroke:none;" d="M45 270L46 271L45 270z"/>
<path style="fill:#76edf9; stroke:none;" d="M73 270L74 271L73 270z"/>
<path style="fill:#b1f5fc; stroke:none;" d="M74 270L75 271L74 270z"/>
<path style="fill:#76edf9; stroke:none;" d="M240 270L241 271L240 270z"/>
<path style="fill:#51e8f7; stroke:none;" d="M269 270L270 271L269 270z"/>
<path style="fill:#b1f5fc; stroke:none;" d="M270 270L271 271L270 270z"/>
<path style="fill:#76edf9; stroke:none;" d="M46 271L47 272L46 271M75 271L76 272L75 271z"/>
<path style="fill:#b1f5fc; stroke:none;" d="M238 271L239 272L238 271z"/>
<path style="fill:#51e8f7; stroke:none;" d="M267 271L268 272L267 271z"/>
<path style="fill:#b1f5fc; stroke:none;" d="M268 271L269 272L268 271z"/>
<path style="fill:#76edf9; stroke:none;" d="M48 272L49 273L48 272z"/>
<path style="fill:#b1f5fc; stroke:none;" d="M77 272L78 273L77 272M236 272L237 273L236 272z"/>
<path style="fill:#51e8f7; stroke:none;" d="M237 272L238 273L237 272z"/>
<path style="fill:#b1f5fc; stroke:none;" d="M266 272L267 273L266 272M49 273L50 274L49 273z"/>
<path style="fill:#51e8f7; stroke:none;" d="M50 273L51 274L50 273M78 273L79 274L78 273z"/>
<path style="fill:#b1f5fc; stroke:none;" d="M79 273L80 274L79 273M234 273L235 274L234 273z"/>
<path style="fill:#76edf9; stroke:none;" d="M235 273L236 274L235 273M264 273L265 274L264 273z"/>
<path style="fill:#b1f5fc; stroke:none;" d="M51 274L52 275L51 274z"/>
<path style="fill:#76edf9; stroke:none;" d="M80 274L81 275L80 274M233 274L234 275L233 274z"/>
<path style="fill:#51e8f7; stroke:none;" d="M262 274L263 275L262 274z"/>
<path style="fill:#b1f5fc; stroke:none;" d="M263 274L264 275L263 274z"/>
<path style="fill:#76edf9; stroke:none;" d="M53 275L54 276L53 275M82 275L83 276L82 275z"/>
<path style="fill:#b1f5fc; stroke:none;" d="M231 275L232 276L231 275z"/>
<path style="fill:#51e8f7; stroke:none;" d="M260 275L261 276L260 275z"/>
<path style="fill:#b1f5fc; stroke:none;" d="M261 275L262 276L261 275M54 276L55 277L54 276z"/>
<path style="fill:#51e8f7; stroke:none;" d="M55 276L56 277L55 276M83 276L84 277L83 276z"/>
<path style="fill:#b1f5fc; stroke:none;" d="M84 276L85 277L84 276M229 276L230 277L229 276z"/>
<path style="fill:#51e8f7; stroke:none;" d="M230 276L231 277L230 276z"/>
<path style="fill:#b1f5fc; stroke:none;" d="M259 276L260 277L259 276M56 277L57 278L56 277z"/>
<path style="fill:#51e8f7; stroke:none;" d="M57 277L58 278L57 277z"/>
<path style="fill:#76edf9; stroke:none;" d="M85 277L86 278L85 277z"/>
<path style="fill:#b1f5fc; stroke:none;" d="M86 277L87 278L86 277M227 277L228 278L227 277z"/>
<path style="fill:#51e8f7; stroke:none;" d="M228 277L229 278L228 277z"/>
<path style="fill:#76edf9; stroke:none;" d="M257 277L258 278L257 277M58 278L59 279L58 278M87 278L88 279L87 278M226 278L227 279L226 278z"/>
<path style="fill:#51e8f7; stroke:none;" d="M255 278L256 279L255 278z"/>
<path style="fill:#b1f5fc; stroke:none;" d="M256 278L257 279L256 278z"/>
<path style="fill:#76edf9; stroke:none;" d="M60 279L61 280L60 279z"/>
<path style="fill:#b1f5fc; stroke:none;" d="M89 279L90 280L89 279M224 279L225 280L224 279z"/>
<path style="fill:#51e8f7; stroke:none;" d="M253 279L254 280L253 279z"/>
<path style="fill:#b1f5fc; stroke:none;" d="M254 279L255 280L254 279M61 280L62 281L61 280z"/>
<path style="fill:#51e8f7; stroke:none;" d="M62 280L63 281L62 280M90 280L91 281L90 280z"/>
<path style="fill:#b1f5fc; stroke:none;" d="M91 280L92 281L91 280M222 280L223 281L222 280z"/>
<path style="fill:#51e8f7; stroke:none;" d="M223 280L224 281L223 280z"/>
<path style="fill:#b1f5fc; stroke:none;" d="M252 280L253 281L252 280M63 281L64 282L63 281z"/>
<path style="fill:#76edf9; stroke:none;" d="M92 281L93 282L92 281z"/>
<path style="fill:#b1f5fc; stroke:none;" d="M220 281L221 282L220 281z"/>
<path style="fill:#51e8f7; stroke:none;" d="M221 281L222 282L221 281z"/>
<path style="fill:#76edf9; stroke:none;" d="M250 281L251 282L250 281M65 282L66 283L65 282z"/>
<path style="fill:#b1f5fc; stroke:none;" d="M94 282L95 283L94 282z"/>
<path style="fill:#76edf9; stroke:none;" d="M219 282L220 283L219 282M248 282L249 283L248 282z"/>
<path style="fill:#b1f5fc; stroke:none;" d="M249 282L250 283L249 282M66 283L67 284L66 283z"/>
<path style="fill:#51e8f7; stroke:none;" d="M67 283L68 284L67 283M95 283L96 284L95 283z"/>
<path style="fill:#b1f5fc; stroke:none;" d="M96 283L97 284L96 283M217 283L218 284L217 283z"/>
<path style="fill:#51e8f7; stroke:none;" d="M246 283L247 284L246 283z"/>
<path style="fill:#b1f5fc; stroke:none;" d="M247 283L248 284L247 283M68 284L69 285L68 284z"/>
<path style="fill:#51e8f7; stroke:none;" d="M69 284L70 285L69 284z"/>
<path style="fill:#76edf9; stroke:none;" d="M97 284L98 285L97 284z"/>
<path style="fill:#b1f5fc; stroke:none;" d="M98 284L99 285L98 284M215 284L216 285L215 284z"/>
<path style="fill:#51e8f7; stroke:none;" d="M216 284L217 285L216 284z"/>
<path style="fill:#b1f5fc; stroke:none;" d="M245 284L246 285L245 284z"/>
<path style="fill:#76edf9; stroke:none;" d="M70 285L71 286L70 285M99 285L100 286L99 285z"/>
<path style="fill:#b1f5fc; stroke:none;" d="M213 285L214 286L213 285z"/>
<path style="fill:#51e8f7; stroke:none;" d="M214 285L215 286L214 285z"/>
<path style="fill:#76edf9; stroke:none;" d="M243 285L244 286L243 285M72 286L73 287L72 286z"/>
<path style="fill:#b1f5fc; stroke:none;" d="M101 286L102 287L101 286z"/>
<path style="fill:#76edf9; stroke:none;" d="M212 286L213 287L212 286M241 286L242 287L241 286z"/>
<path style="fill:#b1f5fc; stroke:none;" d="M242 286L243 287L242 286M73 287L74 288L73 287z"/>
<path style="fill:#51e8f7; stroke:none;" d="M74 287L75 288L74 287M102 287L103 288L102 287z"/>
<path style="fill:#b1f5fc; stroke:none;" d="M103 287L104 288L103 287z"/>
<path style="fill:#76edf9; stroke:none;" d="M210 287L211 288L210 287z"/>
<path style="fill:#51e8f7; stroke:none;" d="M239 287L240 288L239 287z"/>
<path style="fill:#b1f5fc; stroke:none;" d="M240 287L241 288L240 287M75 288L76 289L75 288z"/>
<path style="fill:#76edf9; stroke:none;" d="M104 288L105 289L104 288z"/>
<path style="fill:#b1f5fc; stroke:none;" d="M208 288L209 289L208 288z"/>
<path style="fill:#51e8f7; stroke:none;" d="M209 288L210 289L209 288z"/>
<path style="fill:#b1f5fc; stroke:none;" d="M238 288L239 289L238 288z"/>
<path style="fill:#76edf9; stroke:none;" d="M77 289L78 290L77 289z"/>
<path style="fill:#b1f5fc; stroke:none;" d="M106 289L107 290L106 289M206 289L207 290L206 289z"/>
<path style="fill:#51e8f7; stroke:none;" d="M207 289L208 290L207 289z"/>
<path style="fill:#76edf9; stroke:none;" d="M236 289L237 290L236 289z"/>
<path style="fill:#b1f5fc; stroke:none;" d="M78 290L79 291L78 290z"/>
<path style="fill:#51e8f7; stroke:none;" d="M79 290L80 291L79 290M107 290L108 291L107 290z"/>
<path style="fill:#b1f5fc; stroke:none;" d="M108 290L109 291L108 290z"/>
<path style="fill:#76edf9; stroke:none;" d="M205 290L206 291L205 290M234 290L235 291L234 290z"/>
<path style="fill:#b1f5fc; stroke:none;" d="M235 290L236 291L235 290M80 291L81 292L80 291z"/>
<path style="fill:#51e8f7; stroke:none;" d="M81 291L82 292L81 291z"/>
<path style="fill:#76edf9; stroke:none;" d="M109 291L110 292L109 291z"/>
<path style="fill:#b1f5fc; stroke:none;" d="M110 291L111 292L110 291z"/>
<path style="fill:#76edf9; stroke:none;" d="M203 291L204 292L203 291z"/>
<path style="fill:#51e8f7; stroke:none;" d="M232 291L233 292L232 291z"/>
<path style="fill:#b1f5fc; stroke:none;" d="M233 291L234 292L233 291z"/>
<path style="fill:#76edf9; stroke:none;" d="M82 292L83 293L82 292M111 292L112 293L111 292z"/>
<path style="fill:#b1f5fc; stroke:none;" d="M201 292L202 293L201 292z"/>
<path style="fill:#51e8f7; stroke:none;" d="M202 292L203 293L202 292z"/>
<path style="fill:#b1f5fc; stroke:none;" d="M231 292L232 293L231 292z"/>
<path style="fill:#76edf9; stroke:none;" d="M84 293L85 294L84 293z"/>
<path style="fill:#b1f5fc; stroke:none;" d="M113 293L114 294L113 293M199 293L200 294L199 293z"/>
<path style="fill:#51e8f7; stroke:none;" d="M200 293L201 294L200 293z"/>
<path style="fill:#76edf9; stroke:none;" d="M229 293L230 294L229 293z"/>
<path style="fill:#b1f5fc; stroke:none;" d="M85 294L86 295L85 294z"/>
<path style="fill:#51e8f7; stroke:none;" d="M86 294L87 295L86 294M114 294L115 295L114 294z"/>
<path style="fill:#b1f5fc; stroke:none;" d="M115 294L116 295L115 294z"/>
<path style="fill:#76edf9; stroke:none;" d="M198 294L199 295L198 294M227 294L228 295L227 294z"/>
<path style="fill:#b1f5fc; stroke:none;" d="M228 294L229 295L228 294M87 295L88 296L87 295z"/>
<path style="fill:#76edf9; stroke:none;" d="M116 295L117 296L116 295M196 295L197 296L196 295z"/>
<path style="fill:#51e8f7; stroke:none;" d="M225 295L226 296L225 295z"/>
<path style="fill:#b1f5fc; stroke:none;" d="M226 295L227 296L226 295z"/>
<path style="fill:#76edf9; stroke:none;" d="M89 296L90 297L89 296z"/>
<path style="fill:#b1f5fc; stroke:none;" d="M118 296L119 297L118 296M194 296L195 297L194 296z"/>
<path style="fill:#51e8f7; stroke:none;" d="M195 296L196 297L195 296z"/>
<path style="fill:#b1f5fc; stroke:none;" d="M224 296L225 297L224 296M90 297L91 298L90 297z"/>
<path style="fill:#51e8f7; stroke:none;" d="M91 297L92 298L91 297M119 297L120 298L119 297z"/>
<path style="fill:#b1f5fc; stroke:none;" d="M120 297L121 298L120 297M192 297L193 298L192 297z"/>
<path style="fill:#51e8f7; stroke:none;" d="M193 297L194 298L193 297z"/>
<path style="fill:#76edf9; stroke:none;" d="M222 297L223 298L222 297z"/>
<path style="fill:#b1f5fc; stroke:none;" d="M92 298L93 299L92 298z"/>
<path style="fill:#51e8f7; stroke:none;" d="M93 298L94 299L93 298z"/>
<path style="fill:#76edf9; stroke:none;" d="M121 298L122 299L121 298z"/>
<path style="fill:#b1f5fc; stroke:none;" d="M122 298L123 299L122 298z"/>
<path style="fill:#76edf9; stroke:none;" d="M191 298L192 299L191 298M220 298L221 299L220 298z"/>
<path style="fill:#b1f5fc; stroke:none;" d="M221 298L222 299L221 298z"/>
<path style="fill:#76edf9; stroke:none;" d="M94 299L95 300L94 299M123 299L124 300L123 299M189 299L190 300L189 299z"/>
<path style="fill:#51e8f7; stroke:none;" d="M218 299L219 300L218 299z"/>
<path style="fill:#b1f5fc; stroke:none;" d="M219 299L220 300L219 299z"/>
<path style="fill:#76edf9; stroke:none;" d="M96 300L97 301L96 300z"/>
<path style="fill:#b1f5fc; stroke:none;" d="M125 300L126 301L125 300M187 300L188 301L187 300z"/>
<path style="fill:#51e8f7; stroke:none;" d="M188 300L189 301L188 300z"/>
<path style="fill:#b1f5fc; stroke:none;" d="M217 300L218 301L217 300M97 301L98 302L97 301z"/>
<path style="fill:#51e8f7; stroke:none;" d="M98 301L99 302L98 301M126 301L127 302L126 301z"/>
<path style="fill:#b1f5fc; stroke:none;" d="M127 301L128 302L127 301M185 301L186 302L185 301z"/>
<path style="fill:#51e8f7; stroke:none;" d="M186 301L187 302L186 301z"/>
<path style="fill:#76edf9; stroke:none;" d="M215 301L216 302L215 301z"/>
<path style="fill:#b1f5fc; stroke:none;" d="M99 302L100 303L99 302z"/>
<path style="fill:#76edf9; stroke:none;" d="M128 302L129 303L128 302M184 302L185 303L184 302M213 302L214 303L213 302z"/>
<path style="fill:#b1f5fc; stroke:none;" d="M214 302L215 303L214 302z"/>
<path style="fill:#76edf9; stroke:none;" d="M101 303L102 304L101 303z"/>
<path style="fill:#b1f5fc; stroke:none;" d="M130 303L131 304L130 303z"/>
<path style="fill:#76edf9; stroke:none;" d="M182 303L183 304L182 303z"/>
<path style="fill:#51e8f7; stroke:none;" d="M211 303L212 304L211 303z"/>
<path style="fill:#b1f5fc; stroke:none;" d="M212 303L213 304L212 303M102 304L103 305L102 304z"/>
<path style="fill:#51e8f7; stroke:none;" d="M103 304L104 305L103 304M131 304L132 305L131 304z"/>
<path style="fill:#b1f5fc; stroke:none;" d="M132 304L133 305L132 304M180 304L181 305L180 304M210 304L211 305L210 304M104 305L105 306L104 305z"/>
<path style="fill:#51e8f7; stroke:none;" d="M105 305L106 306L105 305z"/>
<path style="fill:#76edf9; stroke:none;" d="M133 305L134 306L133 305z"/>
<path style="fill:#b1f5fc; stroke:none;" d="M134 305L135 306L134 305M178 305L179 306L178 305z"/>
<path style="fill:#51e8f7; stroke:none;" d="M179 305L180 306L179 305z"/>
<path style="fill:#76edf9; stroke:none;" d="M208 305L209 306L208 305M106 306L107 307L106 306M135 306L136 307L135 306M177 306L178 307L177 306M206 306L207 307L206 306z"/>
<path style="fill:#b1f5fc; stroke:none;" d="M207 306L208 307L207 306z"/>
<path style="fill:#76edf9; stroke:none;" d="M108 307L109 308L108 307z"/>
<path style="fill:#b1f5fc; stroke:none;" d="M137 307L138 308L137 307z"/>
<path style="fill:#76edf9; stroke:none;" d="M175 307L176 308L175 307z"/>
<path style="fill:#51e8f7; stroke:none;" d="M204 307L205 308L204 307z"/>
<path style="fill:#b1f5fc; stroke:none;" d="M205 307L206 308L205 307M109 308L110 309L109 308z"/>
<path style="fill:#51e8f7; stroke:none;" d="M110 308L111 309L110 308M138 308L139 309L138 308z"/>
<path style="fill:#b1f5fc; stroke:none;" d="M139 308L140 309L139 308M173 308L174 309L173 308M203 308L204 309L203 308M111 309L112 310L111 309z"/>
<path style="fill:#76edf9; stroke:none;" d="M140 309L141 310L140 309z"/>
<path style="fill:#b1f5fc; stroke:none;" d="M171 309L172 310L171 309z"/>
<path style="fill:#51e8f7; stroke:none;" d="M172 309L173 310L172 309z"/>
<path style="fill:#76edf9; stroke:none;" d="M201 309L202 310L201 309M113 310L114 311L113 310z"/>
<path style="fill:#b1f5fc; stroke:none;" d="M142 310L143 311L142 310z"/>
<path style="fill:#76edf9; stroke:none;" d="M170 310L171 311L170 310M199 310L200 311L199 310z"/>
<path style="fill:#b1f5fc; stroke:none;" d="M114 311L115 312L114 311z"/>
<path style="fill:#51e8f7; stroke:none;" d="M115 311L116 312L115 311M143 311L144 312L143 311z"/>
<path style="fill:#b1f5fc; stroke:none;" d="M144 311L145 312L144 311z"/>
<path style="fill:#76edf9; stroke:none;" d="M168 311L169 312L168 311z"/>
<path style="fill:#51e8f7; stroke:none;" d="M197 311L198 312L197 311z"/>
<path style="fill:#b1f5fc; stroke:none;" d="M198 311L199 312L198 311M116 312L117 313L116 312z"/>
<path style="fill:#51e8f7; stroke:none;" d="M117 312L118 313L117 312z"/>
<path style="fill:#76edf9; stroke:none;" d="M145 312L146 313L145 312z"/>
<path style="fill:#b1f5fc; stroke:none;" d="M146 312L147 313L146 312M166 312L167 313L166 312M196 312L197 313L196 312z"/>
<path style="fill:#76edf9; stroke:none;" d="M118 313L119 314L118 313M147 313L148 314L147 313z"/>
<path style="fill:#b1f5fc; stroke:none;" d="M164 313L165 314L164 313z"/>
<path style="fill:#51e8f7; stroke:none;" d="M165 313L166 314L165 313z"/>
<path style="fill:#76edf9; stroke:none;" d="M194 313L195 314L194 313M120 314L121 315L120 314z"/>
<path style="fill:#b1f5fc; stroke:none;" d="M149 314L150 315L149 314M162 314L163 315L162 314z"/>
<path style="fill:#76edf9; stroke:none;" d="M163 314L164 315L163 314M192 314L193 315L192 314z"/>
<path style="fill:#b1f5fc; stroke:none;" d="M121 315L122 316L121 315z"/>
<path style="fill:#51e8f7; stroke:none;" d="M122 315L123 316L122 315M150 315L151 316L150 315z"/>
<path style="fill:#b1f5fc; stroke:none;" d="M151 315L152 316L151 315z"/>
<path style="fill:#76edf9; stroke:none;" d="M161 315L162 316L161 315z"/>
<path style="fill:#51e8f7; stroke:none;" d="M190 315L191 316L190 315z"/>
<path style="fill:#b1f5fc; stroke:none;" d="M191 315L192 316L191 315M123 316L124 317L123 316z"/>
<path style="fill:#76edf9; stroke:none;" d="M152 316L153 317L152 316z"/>
<path style="fill:#b1f5fc; stroke:none;" d="M159 316L160 317L159 316M189 316L190 317L189 316z"/>
<path style="fill:#76edf9; stroke:none;" d="M125 317L126 318L125 317z"/>
<path style="fill:#b1f5fc; stroke:none;" d="M154 317L155 318L154 317M157 317L158 318L157 317z"/>
<path style="fill:#51e8f7; stroke:none;" d="M158 317L159 318L158 317z"/>
<path style="fill:#76edf9; stroke:none;" d="M187 317L188 318L187 317z"/>
<path style="fill:#b1f5fc; stroke:none;" d="M126 318L127 319L126 318z"/>
<path style="fill:#51e8f7; stroke:none;" d="M127 318L128 319L127 318M155.667 318.333L156.333 318.667L155.667 318.333z"/>
<path style="fill:#76edf9; stroke:none;" d="M185 318L186 319L185 318z"/>
<path style="fill:#b1f5fc; stroke:none;" d="M128 319L129 320L128 319z"/>
<path style="fill:#51e8f7; stroke:none;" d="M129 319L130 320L129 319M183 319L184 320L183 319z"/>
<path style="fill:#b1f5fc; stroke:none;" d="M184 319L185 320L184 319z"/>
<path style="fill:#76edf9; stroke:none;" d="M130 320L131 321L130 320z"/>
<path style="fill:#51e8f7; stroke:none;" d="M181 320L182 321L181 320z"/>
<path style="fill:#b1f5fc; stroke:none;" d="M182 320L183 321L182 320M131 321L132 322L131 321z"/>
<path style="fill:#76edf9; stroke:none;" d="M132 321L133 322L132 321M180 321L181 322L180 321z"/>
<path style="fill:#b1f5fc; stroke:none;" d="M133 322L134 323L133 322z"/>
<path style="fill:#51e8f7; stroke:none;" d="M134 322L135 323L134 322z"/>
<path style="fill:#76edf9; stroke:none;" d="M178 322L179 323L178 322z"/>
<path style="fill:#b1f5fc; stroke:none;" d="M135 323L136 324L135 323z"/>
<path style="fill:#51e8f7; stroke:none;" d="M176 323L177 324L176 323z"/>
<path style="fill:#b1f5fc; stroke:none;" d="M177 323L178 324L177 323z"/>
<path style="fill:#76edf9; stroke:none;" d="M137 324L138 325L137 324z"/>
<path style="fill:#51e8f7; stroke:none;" d="M174 324L175 325L174 324z"/>
<path style="fill:#b1f5fc; stroke:none;" d="M175 324L176 325L175 324M138 325L139 326L138 325z"/>
<path style="fill:#51e8f7; stroke:none;" d="M139 325L140 326L139 325z"/>
<path style="fill:#76edf9; stroke:none;" d="M173 325L174 326L173 325z"/>
<path style="fill:#b1f5fc; stroke:none;" d="M140 326L141 327L140 326z"/>
<path style="fill:#51e8f7; stroke:none;" d="M141 326L142 327L141 326z"/>
<path style="fill:#76edf9; stroke:none;" d="M171 326L172 327L171 326M142 327L143 328L142 327z"/>
<path style="fill:#51e8f7; stroke:none;" d="M169 327L170 328L169 327z"/>
<path style="fill:#b1f5fc; stroke:none;" d="M170 327L171 328L170 327M143 328L144 329L143 328z"/>
<path style="fill:#76edf9; stroke:none;" d="M144 328L145 329L144 328z"/>
<path style="fill:#51e8f7; stroke:none;" d="M167 328L168 329L167 328z"/>
<path style="fill:#b1f5fc; stroke:none;" d="M168 328L169 329L168 328M145 329L146 330L145 329z"/>
<path style="fill:#51e8f7; stroke:none;" d="M146 329L147 330L146 329z"/>
<path style="fill:#76edf9; stroke:none;" d="M166 329L167 330L166 329z"/>
<path style="fill:#b1f5fc; stroke:none;" d="M147 330L148 331L147 330z"/>
<path style="fill:#76edf9; stroke:none;" d="M164 330L165 331L164 330M149 331L150 332L149 331z"/>
<path style="fill:#51e8f7; stroke:none;" d="M162 331L163 332L162 331z"/>
<path style="fill:#b1f5fc; stroke:none;" d="M163 331L164 332L163 331M150 332L151 333L150 332z"/>
<path style="fill:#51e8f7; stroke:none;" d="M151 332L152 333L151 332M160 332L161 333L160 332z"/>
<path style="fill:#b1f5fc; stroke:none;" d="M161 332L162 333L161 332M152 333L153 334L152 333z"/>
<path style="fill:#76edf9; stroke:none;" d="M159 333L160 334L159 333M154 334L155 335L154 334M157 334L158 335L157 334z"/>
<path style="fill:#b1f5fc; stroke:none;" d="M155.667 335.333L156.333 335.667L155.667 335.333z"/>
</svg>
